<?xml version="1.0" encoding="UTF-8"?>
<svg width="305px" height="283px" viewBox="0 0 305 283" version="1.1" xmlns="http://www.w3.org/2000/svg" xmlns:xlink="http://www.w3.org/1999/xlink">
    <!-- Generator: Sketch 53.2 (72643) - https://sketchapp.com -->
    <title>Training Bot</title>
    <desc>Created with Sketch.</desc>
    <g id="Training-Bot" stroke="none" stroke-width="1" fill="none" fill-rule="evenodd">
        <g id="training-bot" transform="translate(34.000000, 30.000000)" fill-rule="nonzero">
            <g id="layer101" transform="translate(0.200000, 1.000000)" fill="#451476">
                <path d="M100.1,226.7 C71.5,225.5 44.7,218.2 28.4,207.1 C18.5,200.4 9.1,187.8 6.3,177.8 C3.9,168.9 4.5,111.1 7.1,100.9 C10.5,87.7 17.9,73.2 26.8,62.9 L29.9,59.3 L14.9,33.4 C0.3,8.3 -1.6,3.8 1,1.2 C2.3,-0.1 6.7,-0.4 8.5,0.8 C9.1,1.2 16,12.5 23.7,25.9 C31.4,39.4 38.1,50.7 38.5,51.1 C39,51.6 42.2,50.1 45.6,47.9 C63.8,36.3 86.9,30.9 117.9,30.9 C148.5,30.9 170.6,36 189.5,47.5 L196.8,51.9 L198.2,49.7 C198.9,48.5 205.5,37.2 212.7,24.5 C220,11.9 226.4,1.2 227.1,0.8 C228.9,-0.4 233.3,-0.1 234.6,1.2 C235.3,1.9 235.8,3.5 235.8,4.8 C235.8,6.1 229.1,18.8 220.8,32.9 C212.6,47.1 205.8,59.1 205.8,59.7 C205.8,60.2 206.9,61.7 208.3,63 C212.6,67 220.4,79.2 223.7,87 C229.6,100.8 230,103.7 230.5,137.7 C230.9,164.4 230.8,170.1 229.4,176.4 C223,205.2 186.6,224.6 135.5,226.7 C126.8,227 108.8,227 100.1,226.7 Z" id="Path"></path>
            </g>
            <g id="layer103" transform="translate(33.200000, 102.500000)" fill="#9F89BB">
                <path d="M197.2,41.5 C197.2,25.3 197.4,18.6 197.5,26.8 C197.7,34.9 197.7,48.1 197.5,56.3 C197.4,64.4 197.2,57.7 197.2,41.5 Z" id="Path"></path>
            </g>
            <g id="layer104" transform="translate(33.500000, 102.500000)" fill="#C4BAD8">
                <path d="M37,83.5 C20.9,81.5 7.6,70.8 2.3,55.5 C-4.7,35 4.8,12.4 24.4,3.1 L31,0 L84.5,0 L138,0 L143.8,2.7 C151.9,6.5 161.6,16 164.9,23.5 C170.8,36.6 170.5,48 164,61.2 C157.9,73.6 145.7,81.9 131.2,83.6 C122.5,84.6 45.4,84.5 37,83.5 Z M41.4,42.5 C45.6,40.8 48.9,41.9 52.1,45.9 L54.9,49.3 L58.7,46.2 C60.8,44.5 62.5,42.6 62.5,42 C62.5,41.3 60.5,38.9 58.1,36.7 C48.9,28.2 39.1,28.6 29.7,37.8 L25.4,42 L29.7,45.7 L34,49.4 L36.2,46.6 C37.4,45 39.8,43.2 41.4,42.5 Z M123.5,41.5 C125.9,41.5 127.6,42.4 130.1,45 C131.9,46.9 133.7,48.5 134.2,48.5 C134.6,48.4 136.5,47.1 138.3,45.6 C142.2,42.2 141.9,40.8 136.1,35.7 C132.4,32.5 127.1,30.5 122,30.5 C118.2,30.5 110.5,35 107.1,39.2 L104.5,42.3 L108.6,45.7 L112.7,49.1 L116.5,45.3 C119.3,42.5 121.1,41.5 123.5,41.5 Z" id="Shape"></path>
                <path d="M196.9,41.5 C196.9,25.3 197.1,18.6 197.2,26.8 C197.4,34.9 197.4,48.1 197.2,56.3 C197.1,64.4 196.9,57.7 196.9,41.5 Z" id="Path"></path>
            </g>
            <g id="layer105" transform="translate(34.000000, 102.500000)" fill="#FDFEFF">
                <path d="M37,83.5 C26.8,82 21.4,79.5 14,72.7 C4.2,63.8 0.7,56.5 0.2,44 C-0.1,37 0.2,33.4 1.5,29.4 C5.2,17.8 13.5,8.5 24.8,3.2 L31.5,0 L84.1,0 L136.6,0 L144.1,3.7 C153.4,8.3 159.9,14.9 164.3,24.3 C167.3,30.6 167.5,31.7 167.5,42 C167.4,52.5 167.3,53.3 164,59.8 C160,67.9 151.7,76.1 143.8,79.8 C140.9,81.2 135,82.8 130.7,83.4 C121.7,84.7 45.6,84.7 37,83.5 Z M42.2,42 C45.4,41.2 50.1,43.5 52.4,47 L54.1,49.6 L58.3,46.4 C60.6,44.6 62.7,43 62.9,42.9 C63,42.7 61.9,41 60.4,38.9 C55.1,31.9 44.1,28.7 36.5,31.9 C33.4,33.2 25,40.9 25,42.4 C25.1,42.7 27,44.4 29.3,46.2 L33.5,49.4 L36.6,46 C38.3,44.1 40.8,42.3 42.2,42 Z M122.3,41.5 C124.8,41.5 128.5,43.8 131.5,47.2 L133.5,49.5 L137.8,45.8 L142.1,42 L138.5,38.2 C131.7,30.8 122.7,28.7 114.5,32.6 C110.6,34.4 103.9,40.8 104,42.5 C104.1,42.8 105.9,44.4 108.2,46.2 L112.4,49.3 L116.2,45.4 C118.4,43.1 120.9,41.5 122.3,41.5 Z" id="Shape"></path>
            </g>
        </g>
    </g>
</svg>